<svg xmlns="http://www.w3.org/2000/svg" xmlns:xlink="http://www.w3.org/1999/xlink" width="1920" zoomAndPan="magnify" viewBox="0 0 1440 809.999993" height="1080" preserveAspectRatio="xMidYMid meet" version="1.0"><defs><g/><clipPath id="88c05e6a77"><rect x="0" width="824" y="0" height="492"/></clipPath><clipPath id="6c01d0c695"><path d="M 0.878906 73 L 45 73 L 45 601 L 0.878906 601 Z M 0.878906 73 " clip-rule="nonzero"/></clipPath><clipPath id="2b7eef56b7"><path d="M 0.878906 0.238281 L 1341.519531 0.238281 L 1341.519531 665.28125 L 0.878906 665.28125 Z M 0.878906 0.238281 " clip-rule="nonzero"/></clipPath><clipPath id="6589733450"><path d="M 856.214844 179.648438 L 921.394531 179.648438 L 921.394531 244.832031 L 856.214844 244.832031 Z M 856.214844 179.648438 " clip-rule="nonzero"/></clipPath><clipPath id="90b36999af"><path d="M 888.804688 179.648438 C 870.804688 179.648438 856.214844 194.242188 856.214844 212.242188 C 856.214844 230.242188 870.804688 244.832031 888.804688 244.832031 C 906.804688 244.832031 921.394531 230.242188 921.394531 212.242188 C 921.394531 194.242188 906.804688 179.648438 888.804688 179.648438 Z M 888.804688 179.648438 " clip-rule="nonzero"/></clipPath><clipPath id="2d0a19df6c"><path d="M 0.214844 0.648438 L 65.394531 0.648438 L 65.394531 65.832031 L 0.214844 65.832031 Z M 0.214844 0.648438 " clip-rule="nonzero"/></clipPath><clipPath id="bab32c2687"><path d="M 32.804688 0.648438 C 14.804688 0.648438 0.214844 15.242188 0.214844 33.242188 C 0.214844 51.242188 14.804688 65.832031 32.804688 65.832031 C 50.804688 65.832031 65.394531 51.242188 65.394531 33.242188 C 65.394531 15.242188 50.804688 0.648438 32.804688 0.648438 Z M 32.804688 0.648438 " clip-rule="nonzero"/></clipPath><clipPath id="8c4fac7ab2"><rect x="0" width="66" y="0" height="66"/></clipPath><clipPath id="ebd80b1837"><rect x="0" width="153" y="0" height="492"/></clipPath><clipPath id="6e8369d61f"><rect x="0" width="151" y="0" height="91"/></clipPath><clipPath id="cbb0e775ea"><rect x="0" width="1342" y="0" height="666"/></clipPath></defs><rect x="-144" width="1728" fill="#ffffff" y="-80.999999" height="971.999992" fill-opacity="1"/><rect x="-144" width="1728" fill="#ffffff" y="-80.999999" height="971.999992" fill-opacity="1"/><g transform="matrix(1, 0, 0, 1, 80, 72)"><g clip-path="url(#cbb0e775ea)"><g transform="matrix(1, 0, 0, 1, 142, 91)"><g clip-path="url(#88c05e6a77)"><g fill="#99a2e3" fill-opacity="1"><g transform="translate(0.300434, 366.860341)"><g><path d="M 9.84375 -98.390625 C 9.84375 -118.535156 13.648438 -136.222656 21.265625 -151.453125 C 28.878906 -166.679688 39.242188 -178.394531 52.359375 -186.59375 C 65.472656 -194.789062 80.113281 -198.890625 96.28125 -198.890625 C 110.101562 -198.890625 122.226562 -196.078125 132.65625 -190.453125 C 143.082031 -184.835938 151.109375 -177.460938 156.734375 -168.328125 L 156.734375 -196.078125 L 216.8125 -196.078125 L 216.8125 0 L 156.734375 0 L 156.734375 -27.765625 C 150.867188 -18.628906 142.722656 -11.25 132.296875 -5.625 C 121.878906 0 109.757812 2.8125 95.9375 2.8125 C 80 2.8125 65.472656 -1.34375 52.359375 -9.65625 C 39.242188 -17.976562 28.878906 -29.8125 21.265625 -45.15625 C 13.648438 -60.5 9.84375 -78.242188 9.84375 -98.390625 Z M 156.734375 -98.046875 C 156.734375 -113.035156 152.570312 -124.863281 144.25 -133.53125 C 135.9375 -142.195312 125.804688 -146.53125 113.859375 -146.53125 C 101.910156 -146.53125 91.773438 -142.253906 83.453125 -133.703125 C 75.140625 -125.160156 70.984375 -113.390625 70.984375 -98.390625 C 70.984375 -83.398438 75.140625 -71.507812 83.453125 -62.71875 C 91.773438 -53.9375 101.910156 -49.546875 113.859375 -49.546875 C 125.804688 -49.546875 135.9375 -53.878906 144.25 -62.546875 C 152.570312 -71.210938 156.734375 -83.046875 156.734375 -98.046875 Z M 156.734375 -98.046875 "/></g></g></g><g fill="#99a2e3" fill-opacity="1"><g transform="translate(238.90304, 366.860341)"><g><path d="M 101.5625 2.8125 C 84.457031 2.8125 69.226562 -0.113281 55.875 -5.96875 C 42.519531 -11.832031 31.976562 -19.859375 24.25 -30.046875 C 16.519531 -40.234375 12.1875 -51.65625 11.25 -64.3125 L 70.625 -64.3125 C 71.332031 -57.507812 74.492188 -52 80.109375 -47.78125 C 85.734375 -43.570312 92.648438 -41.46875 100.859375 -41.46875 C 108.347656 -41.46875 114.140625 -42.929688 118.234375 -45.859375 C 122.335938 -48.785156 124.390625 -52.59375 124.390625 -57.28125 C 124.390625 -62.90625 121.460938 -67.0625 115.609375 -69.75 C 109.753906 -72.445312 100.269531 -75.4375 87.15625 -78.71875 C 73.09375 -82 61.375 -85.453125 52 -89.078125 C 42.632812 -92.710938 34.554688 -98.453125 27.765625 -106.296875 C 20.972656 -114.148438 17.578125 -124.753906 17.578125 -138.109375 C 17.578125 -149.347656 20.675781 -159.59375 26.875 -168.84375 C 33.082031 -178.101562 42.21875 -185.425781 54.28125 -190.8125 C 66.351562 -196.195312 80.707031 -198.890625 97.34375 -198.890625 C 121.9375 -198.890625 141.316406 -192.796875 155.484375 -180.609375 C 169.660156 -168.429688 177.804688 -152.269531 179.921875 -132.125 L 124.390625 -132.125 C 123.460938 -138.914062 120.476562 -144.300781 115.4375 -148.28125 C 110.394531 -152.269531 103.773438 -154.265625 95.578125 -154.265625 C 88.554688 -154.265625 83.171875 -152.914062 79.421875 -150.21875 C 75.671875 -147.53125 73.796875 -143.84375 73.796875 -139.15625 C 73.796875 -133.53125 76.78125 -129.3125 82.75 -126.5 C 88.726562 -123.695312 98.039062 -120.890625 110.6875 -118.078125 C 125.21875 -114.328125 137.050781 -110.632812 146.1875 -107 C 155.320312 -103.375 163.34375 -97.519531 170.25 -89.4375 C 177.164062 -81.351562 180.738281 -70.515625 180.96875 -56.921875 C 180.96875 -45.441406 177.742188 -35.191406 171.296875 -26.171875 C 164.859375 -17.160156 155.609375 -10.078125 143.546875 -4.921875 C 131.484375 0.234375 117.488281 2.8125 101.5625 2.8125 Z M 101.5625 2.8125 "/></g></g></g><g fill="#99a2e3" fill-opacity="1"><g transform="translate(434.985871, 366.860341)"><g><path d="M 81.875 -168.328125 C 87.5 -177.460938 95.582031 -184.835938 106.125 -190.453125 C 116.664062 -196.078125 128.726562 -198.890625 142.3125 -198.890625 C 158.476562 -198.890625 173.117188 -194.789062 186.234375 -186.59375 C 199.359375 -178.394531 209.726562 -166.679688 217.34375 -151.453125 C 224.957031 -136.222656 228.765625 -118.535156 228.765625 -98.390625 C 228.765625 -78.242188 224.957031 -60.5 217.34375 -45.15625 C 209.726562 -29.8125 199.359375 -17.976562 186.234375 -9.65625 C 173.117188 -1.34375 158.476562 2.8125 142.3125 2.8125 C 128.5 2.8125 116.4375 0.0625 106.125 -5.4375 C 95.8125 -10.945312 87.726562 -18.269531 81.875 -27.40625 L 81.875 0 L 21.78125 0 L 21.78125 -260.046875 L 81.875 -260.046875 Z M 167.625 -98.390625 C 167.625 -113.390625 163.460938 -125.160156 155.140625 -133.703125 C 146.828125 -142.253906 136.578125 -146.53125 124.390625 -146.53125 C 112.441406 -146.53125 102.3125 -142.195312 94 -133.53125 C 85.6875 -124.863281 81.53125 -113.035156 81.53125 -98.046875 C 81.53125 -83.046875 85.6875 -71.210938 94 -62.546875 C 102.3125 -53.878906 112.441406 -49.546875 124.390625 -49.546875 C 136.335938 -49.546875 146.53125 -53.9375 154.96875 -62.71875 C 163.40625 -71.507812 167.625 -83.398438 167.625 -98.390625 Z M 167.625 -98.390625 "/></g></g></g><g fill="#99a2e3" fill-opacity="1"><g transform="translate(673.615276, 366.860341)"><g/></g></g><g fill="#99a2e3" fill-opacity="1"><g transform="translate(748.112694, 366.860341)"><g/></g></g></g></g><g clip-path="url(#6c01d0c695)"><path stroke-linecap="round" transform="matrix(0, -1.23598, 1.23598, 0, 0.99248, 600.237058)" fill="none" stroke-linejoin="miter" d="M 17.501563 17.499156 L 408.341347 17.499156 " stroke="#4d4a9b" stroke-width="35" stroke-opacity="1" stroke-miterlimit="4"/></g><g clip-path="url(#2b7eef56b7)"><path stroke-linecap="round" transform="matrix(1.23598, 0, 0, 1.23598, 70.698523, 65.755355)" fill="none" stroke-linejoin="miter" d="M 18.773615 414.940177 L 933.403687 414.940177 C 946.6586 414.940177 957.404118 404.197819 957.404118 390.942906 L 957.404118 41.498652 C 957.404118 28.243739 946.6586 17.501381 933.403687 17.501381 L 17.499955 17.501381 " stroke="#4d4a9b" stroke-width="35" stroke-opacity="1" stroke-miterlimit="4"/></g><path stroke-linecap="butt" transform="matrix(0, -1.23598, 1.23598, 0, 299.129588, 461.172521)" fill="none" stroke-linejoin="miter" d="M 0.000522805 24.49923 L 160.235163 24.49923 " stroke="#4d4a9b" stroke-width="49" stroke-opacity="1" stroke-miterlimit="4"/><path stroke-linecap="butt" transform="matrix(0, -1.23598, 1.23598, 0, 599.112852, 459.932465)" fill="none" stroke-linejoin="miter" d="M -0.000913049 24.500129 L 226.773769 24.500129 " stroke="#4d4a9b" stroke-width="49" stroke-opacity="1" stroke-miterlimit="4"/><path stroke-linecap="butt" transform="matrix(0, -1.23598, 1.23598, 0, 858.522359, 461.172521)" fill="none" stroke-linejoin="miter" d="M 0.000522805 24.500654 L 160.235163 24.500654 " stroke="#4d4a9b" stroke-width="49" stroke-opacity="1" stroke-miterlimit="4"/><path stroke-linecap="round" transform="matrix(-1.193995, 0.31941, -0.31941, -1.193995, 630.661834, 196.253299)" fill="none" stroke-linejoin="miter" d="M 3.998872 4.000578 L 247.247171 4.001102 " stroke="#c9cce0" stroke-width="8" stroke-opacity="1" stroke-miterlimit="4"/><path stroke-linecap="round" transform="matrix(1.232182, 0.0968273, -0.0968273, 1.232182, 624.934043, 186.547361)" fill="none" stroke-linejoin="miter" d="M 4.000881 3.999837 L 184.093001 3.999567 " stroke="#c9cce0" stroke-width="8" stroke-opacity="1" stroke-miterlimit="4"/><g clip-path="url(#6589733450)"><g clip-path="url(#90b36999af)"><g transform="matrix(1, 0, 0, 1, 856, 179)"><g clip-path="url(#8c4fac7ab2)"><g clip-path="url(#2d0a19df6c)"><g clip-path="url(#bab32c2687)"><path fill="#4d4a9b" d="M 0.214844 0.648438 L 65.394531 0.648438 L 65.394531 65.832031 L 0.214844 65.832031 Z M 0.214844 0.648438 " fill-opacity="1" fill-rule="nonzero"/></g></g></g></g></g></g><g transform="matrix(1, 0, 0, 1, 964, 91)"><g clip-path="url(#ebd80b1837)"><g fill="#99a2e3" fill-opacity="1"><g transform="translate(0.612844, 366.860341)"><g><path d="M 81.875 -163.40625 C 88.90625 -174.175781 97.691406 -182.664062 108.234375 -188.875 C 118.773438 -195.082031 130.488281 -198.1875 143.375 -198.1875 L 143.375 -134.59375 L 126.859375 -134.59375 C 111.867188 -134.59375 100.625 -131.367188 93.125 -124.921875 C 85.625 -118.484375 81.875 -107.179688 81.875 -91.015625 L 81.875 0 L 21.78125 0 L 21.78125 -196.078125 L 81.875 -196.078125 Z M 81.875 -163.40625 "/></g></g></g></g></g><path stroke-linecap="round" transform="matrix(1.175169, -0.382917, 0.382917, 1.175169, 918.26906, 197.439323)" fill="none" stroke-linejoin="miter" d="M 3.99866 4.000449 L 115.11681 3.998912 " stroke="#c9cce0" stroke-width="8" stroke-opacity="1" stroke-miterlimit="4"/><g transform="matrix(1, 0, 0, 1, 1059, 111)"><g clip-path="url(#6e8369d61f)"><g fill="#99a2e3" fill-opacity="1"><g transform="translate(0.783269, 67.706803)"><g><path d="M 3.296875 -33.8125 C 3.460938 -38.414062 4.960938 -41.960938 7.796875 -44.453125 C 10.640625 -46.953125 14.492188 -48.203125 19.359375 -48.203125 C 22.585938 -48.203125 25.351562 -47.640625 27.65625 -46.515625 C 29.957031 -45.398438 31.695312 -43.875 32.875 -41.9375 C 34.0625 -40.007812 34.65625 -37.835938 34.65625 -35.421875 C 34.65625 -32.585938 33.941406 -30.273438 32.515625 -28.484375 C 31.097656 -26.703125 29.445312 -25.488281 27.5625 -24.84375 L 27.5625 -24.59375 C 30.007812 -23.769531 31.941406 -22.410156 33.359375 -20.515625 C 34.785156 -18.628906 35.5 -16.203125 35.5 -13.234375 C 35.5 -10.566406 34.882812 -8.207031 33.65625 -6.15625 C 32.425781 -4.113281 30.640625 -2.507812 28.296875 -1.34375 C 25.953125 -0.1875 23.164062 0.390625 19.9375 0.390625 C 14.78125 0.390625 10.660156 -0.878906 7.578125 -3.421875 C 4.503906 -5.960938 2.878906 -9.789062 2.703125 -14.90625 L 13.421875 -14.90625 C 13.460938 -13.007812 14 -11.515625 15.03125 -10.421875 C 16.0625 -9.328125 17.566406 -8.78125 19.546875 -8.78125 C 21.222656 -8.78125 22.523438 -9.265625 23.453125 -10.234375 C 24.378906 -11.203125 24.84375 -12.476562 24.84375 -14.0625 C 24.84375 -16.132812 24.1875 -17.628906 22.875 -18.546875 C 21.5625 -19.472656 19.460938 -19.9375 16.578125 -19.9375 L 14.515625 -19.9375 L 14.515625 -28.90625 L 16.578125 -28.90625 C 18.773438 -28.90625 20.550781 -29.28125 21.90625 -30.03125 C 23.257812 -30.789062 23.9375 -32.140625 23.9375 -34.078125 C 23.9375 -35.617188 23.503906 -36.820312 22.640625 -37.6875 C 21.785156 -38.550781 20.601562 -38.984375 19.09375 -38.984375 C 17.46875 -38.984375 16.253906 -38.488281 15.453125 -37.5 C 14.660156 -36.507812 14.195312 -35.28125 14.0625 -33.8125 Z M 3.296875 -33.8125 "/></g></g></g><g fill="#99a2e3" fill-opacity="1"><g transform="translate(39.819625, 67.706803)"><g><path d="M 3.296875 -33.8125 C 3.460938 -38.414062 4.960938 -41.960938 7.796875 -44.453125 C 10.640625 -46.953125 14.492188 -48.203125 19.359375 -48.203125 C 22.585938 -48.203125 25.351562 -47.640625 27.65625 -46.515625 C 29.957031 -45.398438 31.695312 -43.875 32.875 -41.9375 C 34.0625 -40.007812 34.65625 -37.835938 34.65625 -35.421875 C 34.65625 -32.585938 33.941406 -30.273438 32.515625 -28.484375 C 31.097656 -26.703125 29.445312 -25.488281 27.5625 -24.84375 L 27.5625 -24.59375 C 30.007812 -23.769531 31.941406 -22.410156 33.359375 -20.515625 C 34.785156 -18.628906 35.5 -16.203125 35.5 -13.234375 C 35.5 -10.566406 34.882812 -8.207031 33.65625 -6.15625 C 32.425781 -4.113281 30.640625 -2.507812 28.296875 -1.34375 C 25.953125 -0.1875 23.164062 0.390625 19.9375 0.390625 C 14.78125 0.390625 10.660156 -0.878906 7.578125 -3.421875 C 4.503906 -5.960938 2.878906 -9.789062 2.703125 -14.90625 L 13.421875 -14.90625 C 13.460938 -13.007812 14 -11.515625 15.03125 -10.421875 C 16.0625 -9.328125 17.566406 -8.78125 19.546875 -8.78125 C 21.222656 -8.78125 22.523438 -9.265625 23.453125 -10.234375 C 24.378906 -11.203125 24.84375 -12.476562 24.84375 -14.0625 C 24.84375 -16.132812 24.1875 -17.628906 22.875 -18.546875 C 21.5625 -19.472656 19.460938 -19.9375 16.578125 -19.9375 L 14.515625 -19.9375 L 14.515625 -28.90625 L 16.578125 -28.90625 C 18.773438 -28.90625 20.550781 -29.28125 21.90625 -30.03125 C 23.257812 -30.789062 23.9375 -32.140625 23.9375 -34.078125 C 23.9375 -35.617188 23.503906 -36.820312 22.640625 -37.6875 C 21.785156 -38.550781 20.601562 -38.984375 19.09375 -38.984375 C 17.46875 -38.984375 16.253906 -38.488281 15.453125 -37.5 C 14.660156 -36.507812 14.195312 -35.28125 14.0625 -33.8125 Z M 3.296875 -33.8125 "/></g></g></g><g fill="#99a2e3" fill-opacity="1"><g transform="translate(78.855981, 67.706803)"><g><path d="M 2.515625 -8.84375 C 3.972656 -10 4.640625 -10.535156 4.515625 -10.453125 C 8.734375 -13.941406 12.054688 -16.800781 14.484375 -19.03125 C 16.921875 -21.269531 18.976562 -23.613281 20.65625 -26.0625 C 22.332031 -28.519531 23.171875 -30.910156 23.171875 -33.234375 C 23.171875 -34.992188 22.757812 -36.367188 21.9375 -37.359375 C 21.125 -38.347656 19.898438 -38.84375 18.265625 -38.84375 C 16.628906 -38.84375 15.347656 -38.226562 14.421875 -37 C 13.492188 -35.78125 13.03125 -34.050781 13.03125 -31.8125 L 2.390625 -31.8125 C 2.472656 -35.46875 3.253906 -38.519531 4.734375 -40.96875 C 6.222656 -43.425781 8.179688 -45.234375 10.609375 -46.390625 C 13.046875 -47.554688 15.75 -48.140625 18.71875 -48.140625 C 23.832031 -48.140625 27.691406 -46.828125 30.296875 -44.203125 C 32.898438 -41.578125 34.203125 -38.15625 34.203125 -33.9375 C 34.203125 -29.332031 32.628906 -25.0625 29.484375 -21.125 C 26.347656 -17.195312 22.347656 -13.359375 17.484375 -9.609375 L 34.90625 -9.609375 L 34.90625 -0.640625 L 2.515625 -0.640625 Z M 2.515625 -8.84375 "/></g></g></g><g fill="#99a2e3" fill-opacity="1"><g transform="translate(115.698561, 67.706803)"><g><path d="M 32.96875 -38.84375 L 16.78125 0 L 5.484375 0 L 21.875 -37.625 L 1.8125 -37.625 L 1.8125 -47.046875 L 32.96875 -47.046875 Z M 32.96875 -38.84375 "/></g></g></g></g></g></g></g></svg>